<svg width="1380" height="884" viewBox="0 0 1380 884" fill="none" xmlns="http://www.w3.org/2000/svg">
<g filter="url(#filter0_ddd_0_39)">
<g clip-path="url(#clip0_0_39)">
<rect x="50" y="40" width="1280" height="784" rx="10" fill="#38393A"/>
<rect x="50" y="93" width="1280" height="731" fill="#C4C4C4"/>
<g filter="url(#filter1_iiii_0_39)">
<path d="M50 50C50 44.4772 54.4772 40 60 40H1320C1325.52 40 1330 44.4772 1330 50V93H50V50Z" fill="#191C1F"/>
<g clip-path="url(#clip1_0_39)">
<path d="M1178.5 74.4736C1183.13 74.4736 1186.97 70.6304 1186.97 66.0068C1186.97 61.375 1183.12 57.54 1178.49 57.54C1173.87 57.54 1170.03 61.375 1170.03 66.0068C1170.03 70.6304 1173.88 74.4736 1178.5 74.4736ZM1178.5 73.0625C1174.58 73.0625 1171.45 69.9248 1171.45 66.0068C1171.45 62.0889 1174.57 58.9512 1178.49 58.9512C1182.41 58.9512 1185.55 62.0889 1185.56 66.0068C1185.56 69.9248 1182.42 73.0625 1178.5 73.0625ZM1178.5 61.7817C1178.14 61.7817 1177.88 62.0391 1177.88 62.4043V66.5547L1177.94 68.3062L1177.11 67.3101L1176.13 66.314C1176.01 66.2061 1175.86 66.1313 1175.69 66.1313C1175.35 66.1313 1175.09 66.397 1175.09 66.729C1175.09 66.9033 1175.14 67.0527 1175.25 67.1606L1178.02 69.9248C1178.18 70.0908 1178.33 70.1572 1178.5 70.1572C1178.68 70.1572 1178.83 70.0825 1178.99 69.9248L1181.75 67.1606C1181.86 67.0527 1181.93 66.9033 1181.93 66.729C1181.93 66.397 1181.66 66.1313 1181.32 66.1313C1181.14 66.1313 1180.99 66.1978 1180.88 66.314L1179.9 67.3101L1179.06 68.3145L1179.12 66.5547V62.4043C1179.12 62.0391 1178.87 61.7817 1178.5 61.7817Z" fill="#999C9F"/>
<path d="M1219.5 68.2646C1219.86 68.2646 1220.16 67.9658 1220.16 67.6172V59.0923L1220.11 57.8472L1220.67 58.4365L1221.92 59.7812C1222.04 59.9141 1222.21 59.9805 1222.37 59.9805C1222.72 59.9805 1222.98 59.7314 1222.98 59.3911C1222.98 59.2168 1222.91 59.084 1222.79 58.9595L1219.98 56.2534C1219.82 56.0874 1219.67 56.0293 1219.5 56.0293C1219.33 56.0293 1219.18 56.0874 1219.02 56.2534L1216.21 58.9595C1216.09 59.084 1216.01 59.2168 1216.01 59.3911C1216.01 59.7314 1216.27 59.9805 1216.61 59.9805C1216.78 59.9805 1216.95 59.9141 1217.07 59.7812L1218.33 58.4365L1218.89 57.8472L1218.84 59.0923V67.6172C1218.84 67.9658 1219.14 68.2646 1219.5 68.2646ZM1214.74 74.7642H1224.26C1225.99 74.7642 1226.86 73.9009 1226.86 72.1909V63.9067C1226.86 62.1968 1225.99 61.3335 1224.26 61.3335H1221.94V62.6699H1224.23C1225.05 62.6699 1225.53 63.1182 1225.53 63.9814V72.1162C1225.53 72.9795 1225.05 73.4277 1224.23 73.4277H1214.75C1213.92 73.4277 1213.47 72.9795 1213.47 72.1162V63.9814C1213.47 63.1182 1213.92 62.6699 1214.75 62.6699H1217.05V61.3335H1214.74C1213 61.3335 1212.13 62.1968 1212.13 63.9067V72.1909C1212.13 73.9009 1213 74.7642 1214.74 74.7642Z" fill="#999C9F"/>
<path d="M1260.5 73.0044C1260.91 73.0044 1261.25 72.6807 1261.25 72.2822V66.7622H1266.61C1267.01 66.7622 1267.35 66.4219 1267.35 66.0151C1267.35 65.6084 1267.01 65.2764 1266.61 65.2764H1261.25V59.748C1261.25 59.3496 1260.91 59.0259 1260.5 59.0259C1260.09 59.0259 1259.76 59.3496 1259.76 59.748V65.2764H1254.39C1253.99 65.2764 1253.65 65.6084 1253.65 66.0151C1253.65 66.4219 1253.99 66.7622 1254.39 66.7622H1259.76V72.2822C1259.76 72.6807 1260.09 73.0044 1260.5 73.0044Z" fill="#999C9F"/>
<path d="M1295.32 70.8711H1296.74V72.1411C1296.74 73.8511 1297.61 74.7144 1299.35 74.7144H1307.68C1309.41 74.7144 1310.28 73.8511 1310.28 72.1411V63.7407C1310.28 62.0308 1309.41 61.1675 1307.68 61.1675H1306.26V59.8975C1306.26 58.1875 1305.38 57.3242 1303.66 57.3242H1295.32C1293.58 57.3242 1292.72 58.1875 1292.72 59.8975V68.2979C1292.72 70.0078 1293.58 70.8711 1295.32 70.8711ZM1295.34 69.5347C1294.51 69.5347 1294.05 69.0864 1294.05 68.2231V59.9722C1294.05 59.1089 1294.51 58.6606 1295.34 58.6606H1303.63C1304.46 58.6606 1304.92 59.1089 1304.92 59.9722V61.1675H1299.35C1297.61 61.1675 1296.74 62.0225 1296.74 63.7407V69.5347H1295.34ZM1299.37 73.3779C1298.54 73.3779 1298.08 72.9297 1298.08 72.0664V63.8154C1298.08 62.9521 1298.54 62.5039 1299.37 62.5039H1307.66C1308.48 62.5039 1308.95 62.9521 1308.95 63.8154V72.0664C1308.95 72.9297 1308.48 73.3779 1307.66 73.3779H1299.37Z" fill="#999C9F"/>
</g>
<g clip-path="url(#clip2_0_39)">
<path d="M203.264 72.9878L196.682 66.563C196.524 66.4053 196.441 66.2144 196.441 66.0068C196.441 65.791 196.532 65.5835 196.69 65.4507L203.264 59.0176C203.405 58.8765 203.588 58.7935 203.804 58.7935C204.235 58.7935 204.559 59.1255 204.559 59.5571C204.559 59.7563 204.476 59.9556 204.343 60.0967L198.3 66.0068L204.343 71.917C204.476 72.0581 204.559 72.249 204.559 72.4565C204.559 72.8882 204.235 73.2119 203.804 73.2119C203.588 73.2119 203.405 73.1289 203.264 72.9878Z" fill="#999C9F"/>
<path d="M230.196 73.2202C230.412 73.2202 230.595 73.1372 230.736 72.9961L237.318 66.563C237.476 66.4053 237.559 66.2144 237.559 66.0068C237.559 65.791 237.476 65.5918 237.318 65.4507L230.744 59.0259C230.595 58.8765 230.412 58.7935 230.196 58.7935C229.765 58.7935 229.441 59.1255 229.441 59.5571C229.441 59.7563 229.524 59.9556 229.657 60.0967L235.7 66.0068L229.657 71.917C229.524 72.0581 229.441 72.249 229.441 72.4565C229.441 72.8882 229.765 73.2202 230.196 73.2202Z" fill="#3D4043"/>
</g>
<path d="M151.32 73.6602H165.68C167.423 73.6602 168.287 72.7969 168.287 71.0869V60.9517C168.287 59.2417 167.423 58.3784 165.68 58.3784H151.32C149.585 58.3784 148.713 59.2334 148.713 60.9517V71.0869C148.713 72.8052 149.585 73.6602 151.32 73.6602ZM151.336 72.3237C150.506 72.3237 150.05 71.8838 150.05 71.0205V61.0181C150.05 60.1548 150.506 59.7148 151.336 59.7148H155.039V72.3237H151.336ZM165.664 59.7148C166.485 59.7148 166.95 60.1548 166.95 61.0181V71.0205C166.95 71.8838 166.485 72.3237 165.664 72.3237H156.342V59.7148H165.664ZM153.437 62.7944C153.694 62.7944 153.91 62.5703 153.91 62.3296C153.91 62.0806 153.694 61.8647 153.437 61.8647H151.66C151.411 61.8647 151.187 62.0806 151.187 62.3296C151.187 62.5703 151.411 62.7944 151.66 62.7944H153.437ZM153.437 64.9443C153.694 64.9443 153.91 64.7202 153.91 64.4712C153.91 64.2222 153.694 64.0146 153.437 64.0146H151.66C151.411 64.0146 151.187 64.2222 151.187 64.4712C151.187 64.7202 151.411 64.9443 151.66 64.9443H153.437ZM153.437 67.0859C153.694 67.0859 153.91 66.8784 153.91 66.6294C153.91 66.3804 153.694 66.1646 153.437 66.1646H151.66C151.411 66.1646 151.187 66.3804 151.187 66.6294C151.187 66.8784 151.411 67.0859 151.66 67.0859H153.437Z" fill="#999C9F"/>
<g filter="url(#filter2_i_0_39)">
<path fill-rule="evenodd" clip-rule="evenodd" d="M77 72C80.3137 72 83 69.3137 83 66C83 62.6863 80.3137 60 77 60C73.6863 60 71 62.6863 71 66C71 69.3137 73.6863 72 77 72Z" fill="#EE6A5F"/>
</g>
<path d="M82.75 66C82.75 69.1756 80.1756 71.75 77 71.75C73.8244 71.75 71.25 69.1756 71.25 66C71.25 62.8244 73.8244 60.25 77 60.25C80.1756 60.25 82.75 62.8244 82.75 66Z" stroke="#CE5347" stroke-width="0.5"/>
<g filter="url(#filter3_i_0_39)">
<path fill-rule="evenodd" clip-rule="evenodd" d="M97 72C100.314 72 103 69.3137 103 66C103 62.6863 100.314 60 97 60C93.6863 60 91 62.6863 91 66C91 69.3137 93.6863 72 97 72Z" fill="#F5BD4F"/>
</g>
<path d="M102.75 66C102.75 69.1756 100.176 71.75 97 71.75C93.8244 71.75 91.25 69.1756 91.25 66C91.25 62.8244 93.8244 60.25 97 60.25C100.176 60.25 102.75 62.8244 102.75 66Z" stroke="#D6A243" stroke-width="0.5"/>
<g filter="url(#filter4_i_0_39)">
<path fill-rule="evenodd" clip-rule="evenodd" d="M117 72C120.314 72 123 69.3137 123 66C123 62.6863 120.314 60 117 60C113.686 60 111 62.6863 111 66C111 69.3137 113.686 72 117 72Z" fill="#61C454"/>
</g>
<path d="M122.75 66C122.75 69.1756 120.176 71.75 117 71.75C113.824 71.75 111.25 69.1756 111.25 66C111.25 62.8244 113.824 60.25 117 60.25C120.176 60.25 122.75 62.8244 122.75 66Z" stroke="#58A942" stroke-width="0.5"/>
<g clip-path="url(#clip3_0_39)">
<path d="M406.5 74.6147C406.633 74.6147 406.849 74.5649 407.056 74.4487C411.779 71.8008 413.398 70.6802 413.398 67.6504V61.3003C413.398 60.4287 413.024 60.1548 412.319 59.856C411.339 59.4492 408.177 58.312 407.197 57.9717C406.973 57.897 406.732 57.8472 406.5 57.8472C406.268 57.8472 406.027 57.9136 405.811 57.9717C404.832 58.2539 401.661 59.4575 400.681 59.856C399.984 60.1465 399.602 60.4287 399.602 61.3003V67.6504C399.602 70.6802 401.229 71.7925 405.944 74.4487C406.16 74.5649 406.367 74.6147 406.5 74.6147ZM406.832 59.2583C408.085 59.7563 410.518 60.6362 411.804 61.0762C412.028 61.1592 412.078 61.2754 412.078 61.5576V67.3433C412.078 69.9082 410.85 70.5806 407.015 72.9131C406.774 73.0625 406.641 73.104 406.508 73.1123V59.1836C406.591 59.1836 406.699 59.2085 406.832 59.2583Z" fill="#999C9F"/>
<rect x="432" y="52" width="516" height="28" rx="6" fill="#0C0F12"/>
<g clip-path="url(#clip4_0_39)">
<path d="M609.711 71.7158H615.289C616.045 71.7158 616.414 71.3408 616.414 70.5205V66.2197C616.414 65.4814 616.109 65.1006 615.482 65.0361V63.5596C615.482 61.3506 614.035 60.2842 612.5 60.2842C610.965 60.2842 609.518 61.3506 609.518 63.5596V65.0654C608.943 65.1533 608.586 65.5283 608.586 66.2197V70.5205C608.586 71.3408 608.955 71.7158 609.711 71.7158ZM610.461 63.4365C610.461 61.9658 611.404 61.1865 612.5 61.1865C613.596 61.1865 614.539 61.9658 614.539 63.4365V65.0303L610.461 65.0361V63.4365Z" fill="#DBDBDC"/>
<path d="M624.501 66.7344V71H623.411V61.5455H624.501V65.017H624.593C624.759 64.6508 625.009 64.36 625.341 64.1445C625.676 63.926 626.123 63.8168 626.68 63.8168C627.163 63.8168 627.586 63.9137 627.949 64.1076C628.312 64.2984 628.594 64.5923 628.794 64.9893C628.997 65.3833 629.099 65.8849 629.099 66.4943V71H628.009V66.5682C628.009 66.005 627.863 65.5695 627.571 65.2617C627.281 64.9509 626.88 64.7955 626.366 64.7955C626.009 64.7955 625.689 64.8709 625.406 65.0217C625.125 65.1725 624.904 65.3925 624.741 65.6818C624.581 65.9711 624.501 66.322 624.501 66.7344ZM634.124 63.9091V64.8324H630.449V63.9091H634.124ZM631.52 62.2102H632.609V68.9688C632.609 69.2765 632.654 69.5073 632.743 69.6612C632.836 69.812 632.953 69.9136 633.094 69.9659C633.239 70.0152 633.391 70.0398 633.551 70.0398C633.671 70.0398 633.77 70.0336 633.847 70.0213C633.924 70.0059 633.985 69.9936 634.031 69.9844L634.253 70.9631C634.179 70.9908 634.076 71.0185 633.944 71.0462C633.811 71.0769 633.644 71.0923 633.44 71.0923C633.133 71.0923 632.831 71.0262 632.536 70.8938C632.243 70.7615 632 70.5599 631.806 70.2891C631.615 70.0182 631.52 69.6766 631.52 69.2642V62.2102ZM638.794 63.9091V64.8324H635.12V63.9091H638.794ZM636.191 62.2102H637.28V68.9688C637.28 69.2765 637.325 69.5073 637.414 69.6612C637.506 69.812 637.623 69.9136 637.765 69.9659C637.91 70.0152 638.062 70.0398 638.222 70.0398C638.342 70.0398 638.44 70.0336 638.517 70.0213C638.594 70.0059 638.656 69.9936 638.702 69.9844L638.924 70.9631C638.85 70.9908 638.747 71.0185 638.614 71.0462C638.482 71.0769 638.314 71.0923 638.111 71.0923C637.803 71.0923 637.502 71.0262 637.206 70.8938C636.914 70.7615 636.671 70.5599 636.477 70.2891C636.286 70.0182 636.191 69.6766 636.191 69.2642V62.2102ZM640.381 73.6591V63.9091H641.434V65.0355H641.563C641.643 64.9124 641.754 64.7554 641.895 64.5646C642.04 64.3707 642.246 64.1984 642.514 64.0476C642.785 63.8937 643.151 63.8168 643.613 63.8168C644.21 63.8168 644.736 63.966 645.192 64.2646C645.647 64.5631 646.003 64.9863 646.258 65.5341C646.513 66.0819 646.641 66.7282 646.641 67.473C646.641 68.224 646.513 68.8749 646.258 69.4258C646.003 69.9736 645.649 70.3983 645.196 70.6999C644.744 70.9985 644.222 71.1477 643.631 71.1477C643.176 71.1477 642.811 71.0723 642.537 70.9215C642.263 70.7676 642.052 70.5937 641.905 70.3999C641.757 70.2029 641.643 70.0398 641.563 69.9105H641.471V73.6591H640.381ZM641.452 67.4545C641.452 67.9901 641.531 68.4625 641.688 68.8718C641.845 69.2781 642.074 69.5966 642.376 69.8274C642.677 70.0552 643.046 70.169 643.483 70.169C643.939 70.169 644.319 70.049 644.624 69.8089C644.932 69.5658 645.162 69.2396 645.316 68.8303C645.473 68.4179 645.552 67.9593 645.552 67.4545C645.552 66.956 645.475 66.5066 645.321 66.1065C645.17 65.7034 644.941 65.3848 644.633 65.1509C644.328 64.9139 643.945 64.7955 643.483 64.7955C643.04 64.7955 642.668 64.9078 642.366 65.1325C642.065 65.354 641.837 65.6649 641.683 66.065C641.529 66.462 641.452 66.9252 641.452 67.4545ZM653.274 65.4972L652.295 65.7741C652.234 65.611 652.143 65.4525 652.023 65.2987C651.906 65.1417 651.746 65.0124 651.543 64.9109C651.339 64.8093 651.079 64.7585 650.762 64.7585C650.328 64.7585 649.967 64.8585 649.678 65.0586C649.391 65.2556 649.248 65.5064 649.248 65.8111C649.248 66.0819 649.347 66.2958 649.544 66.4528C649.741 66.6097 650.048 66.7405 650.467 66.8452L651.52 67.1037C652.154 67.2576 652.626 67.493 652.937 67.81C653.248 68.1239 653.403 68.5286 653.403 69.0241C653.403 69.4304 653.286 69.7936 653.052 70.1136C652.821 70.4337 652.498 70.6861 652.083 70.8707C651.667 71.0554 651.184 71.1477 650.633 71.1477C649.91 71.1477 649.311 70.9908 648.837 70.6768C648.363 70.3629 648.063 69.9044 647.937 69.3011L648.971 69.0426C649.07 69.4242 649.256 69.7105 649.53 69.9013C649.807 70.0921 650.168 70.1875 650.615 70.1875C651.123 70.1875 651.526 70.0798 651.824 69.8643C652.126 69.6458 652.277 69.3842 652.277 69.0795C652.277 68.8333 652.19 68.6271 652.018 68.4609C651.846 68.2917 651.581 68.1655 651.224 68.0824L650.042 67.8054C649.393 67.6515 648.916 67.413 648.611 67.0898C648.31 66.7636 648.159 66.3558 648.159 65.8665C648.159 65.4664 648.271 65.1125 648.496 64.8047C648.723 64.4969 649.033 64.2553 649.424 64.0799C649.818 63.9045 650.264 63.8168 650.762 63.8168C651.464 63.8168 652.015 63.9706 652.415 64.2784C652.818 64.5862 653.105 64.9924 653.274 65.4972ZM655.785 71.0739C655.557 71.0739 655.362 70.9923 655.199 70.8292C655.036 70.6661 654.954 70.4706 654.954 70.2429C654.954 70.0152 655.036 69.8197 655.199 69.6566C655.362 69.4935 655.557 69.4119 655.785 69.4119C656.013 69.4119 656.208 69.4935 656.371 69.6566C656.535 69.8197 656.616 70.0152 656.616 70.2429C656.616 70.3937 656.578 70.5322 656.501 70.6584C656.427 70.7846 656.327 70.8861 656.201 70.9631C656.077 71.0369 655.939 71.0739 655.785 71.0739ZM655.785 65.8111C655.557 65.8111 655.362 65.7295 655.199 65.5664C655.036 65.4033 654.954 65.2079 654.954 64.9801C654.954 64.7524 655.036 64.5569 655.199 64.3938C655.362 64.2307 655.557 64.1491 655.785 64.1491C656.013 64.1491 656.208 64.2307 656.371 64.3938C656.535 64.5569 656.616 64.7524 656.616 64.9801C656.616 65.1309 656.578 65.2694 656.501 65.3956C656.427 65.5218 656.327 65.6233 656.201 65.7003C656.077 65.7741 655.939 65.8111 655.785 65.8111ZM661.861 61.1023L658.815 72.4219H657.817L660.864 61.1023H661.861ZM666.443 61.1023L663.396 72.4219H662.399L665.446 61.1023H666.443ZM670.563 71.1477C669.899 71.1477 669.326 70.9908 668.846 70.6768C668.366 70.3629 667.997 69.9305 667.738 69.3796C667.48 68.8287 667.35 68.1993 667.35 67.4915C667.35 66.7713 667.483 66.1358 667.747 65.5849C668.015 65.0309 668.388 64.5985 668.865 64.2876C669.345 63.9737 669.905 63.8168 670.545 63.8168C671.044 63.8168 671.493 63.9091 671.893 64.0938C672.293 64.2784 672.621 64.5369 672.876 64.8693C673.132 65.2017 673.29 65.5895 673.352 66.0327H672.262C672.179 65.7095 671.995 65.4233 671.708 65.174C671.425 64.9216 671.044 64.7955 670.563 64.7955C670.139 64.7955 669.766 64.9062 669.446 65.1278C669.129 65.3464 668.881 65.6557 668.703 66.0558C668.528 66.4528 668.44 66.919 668.44 67.4545C668.44 68.0024 668.526 68.4794 668.698 68.8857C668.874 69.2919 669.12 69.6074 669.437 69.832C669.757 70.0567 670.133 70.169 670.563 70.169C670.847 70.169 671.104 70.1198 671.334 70.0213C671.565 69.9228 671.761 69.7812 671.921 69.5966C672.081 69.4119 672.195 69.1903 672.262 68.9318H673.352C673.29 69.3504 673.138 69.7274 672.895 70.0629C672.655 70.3952 672.336 70.6599 671.939 70.8569C671.545 71.0508 671.087 71.1477 670.563 71.1477ZM677.773 71.1477C677.133 71.1477 676.571 70.9954 676.088 70.6907C675.608 70.386 675.233 69.9598 674.962 69.4119C674.694 68.8641 674.56 68.224 674.56 67.4915C674.56 66.7528 674.694 66.1081 674.962 65.5572C675.233 65.0063 675.608 64.5785 676.088 64.2738C676.571 63.9691 677.133 63.8168 677.773 63.8168C678.413 63.8168 678.973 63.9691 679.454 64.2738C679.937 64.5785 680.312 65.0063 680.58 65.5572C680.851 66.1081 680.986 66.7528 680.986 67.4915C680.986 68.224 680.851 68.8641 680.58 69.4119C680.312 69.9598 679.937 70.386 679.454 70.6907C678.973 70.9954 678.413 71.1477 677.773 71.1477ZM677.773 70.169C678.259 70.169 678.659 70.0444 678.973 69.7951C679.287 69.5458 679.52 69.218 679.67 68.8118C679.821 68.4055 679.897 67.9654 679.897 67.4915C679.897 67.0175 679.821 66.5759 679.67 66.1665C679.52 65.7572 679.287 65.4264 678.973 65.174C678.659 64.9216 678.259 64.7955 677.773 64.7955C677.287 64.7955 676.887 64.9216 676.573 65.174C676.259 65.4264 676.027 65.7572 675.876 66.1665C675.725 66.5759 675.65 67.0175 675.65 67.4915C675.65 67.9654 675.725 68.4055 675.876 68.8118C676.027 69.218 676.259 69.5458 676.573 69.7951C676.887 70.0444 677.287 70.169 677.773 70.169ZM682.597 71V63.9091H683.65V65.017H683.742C683.89 64.6385 684.128 64.3446 684.458 64.1353C684.787 63.9229 685.183 63.8168 685.644 63.8168C686.112 63.8168 686.501 63.9229 686.812 64.1353C687.126 64.3446 687.371 64.6385 687.546 65.017H687.62C687.802 64.6508 688.074 64.36 688.437 64.1445C688.8 63.926 689.236 63.8168 689.744 63.8168C690.378 63.8168 690.896 64.0153 691.299 64.4123C691.703 64.8062 691.904 65.4202 691.904 66.2543V71H690.815V66.2543C690.815 65.7311 690.671 65.3571 690.385 65.1325C690.099 64.9078 689.762 64.7955 689.374 64.7955C688.876 64.7955 688.489 64.9463 688.216 65.2479C687.942 65.5464 687.805 65.925 687.805 66.3835V71H686.697V66.1435C686.697 65.7403 686.566 65.4156 686.304 65.1694C686.043 64.9201 685.706 64.7955 685.293 64.7955C685.01 64.7955 684.745 64.8709 684.499 65.0217C684.256 65.1725 684.059 65.3817 683.908 65.6495C683.761 65.9142 683.687 66.2204 683.687 66.5682V71H682.597ZM693.844 71V63.9091H694.934V71H693.844ZM694.398 62.7273C694.186 62.7273 694.003 62.6549 693.849 62.5103C693.698 62.3656 693.623 62.1918 693.623 61.9886C693.623 61.7855 693.698 61.6116 693.849 61.467C694.003 61.3223 694.186 61.25 694.398 61.25C694.61 61.25 694.792 61.3223 694.943 61.467C695.097 61.6116 695.174 61.7855 695.174 61.9886C695.174 62.1918 695.097 62.3656 694.943 62.5103C694.792 62.6549 694.61 62.7273 694.398 62.7273ZM697.967 66.7344V71H696.877V63.9091H697.93V65.017H698.022C698.188 64.657 698.441 64.3677 698.779 64.1491C699.118 63.9276 699.555 63.8168 700.09 63.8168C700.57 63.8168 700.99 63.9152 701.35 64.1122C701.711 64.3061 701.991 64.6016 702.191 64.9986C702.391 65.3925 702.491 65.8911 702.491 66.4943V71H701.401V66.5682C701.401 66.0111 701.257 65.5772 700.967 65.2663C700.678 64.9524 700.281 64.7955 699.776 64.7955C699.428 64.7955 699.118 64.8709 698.844 65.0217C698.573 65.1725 698.359 65.3925 698.202 65.6818C698.045 65.9711 697.967 66.322 697.967 66.7344ZM707.292 73.8068C706.765 73.8068 706.313 73.7391 705.935 73.6037C705.556 73.4714 705.241 73.2959 704.988 73.0774C704.739 72.862 704.54 72.6312 704.393 72.3849L705.261 71.7756C705.359 71.9048 705.484 72.0526 705.634 72.2188C705.785 72.388 705.991 72.5342 706.253 72.6573C706.518 72.7835 706.864 72.8466 707.292 72.8466C707.864 72.8466 708.337 72.7081 708.709 72.4311C709.081 72.1541 709.268 71.7202 709.268 71.1293V69.6889H709.175C709.095 69.8182 708.981 69.9782 708.834 70.169C708.689 70.3568 708.48 70.5245 708.206 70.6722C707.935 70.8169 707.569 70.8892 707.107 70.8892C706.535 70.8892 706.021 70.7538 705.565 70.483C705.113 70.2121 704.754 69.8182 704.49 69.3011C704.228 68.7841 704.097 68.1562 704.097 67.4176C704.097 66.6913 704.225 66.0588 704.48 65.5202C704.736 64.9786 705.091 64.56 705.547 64.2646C706.002 63.966 706.529 63.8168 707.126 63.8168C707.587 63.8168 707.953 63.8937 708.224 64.0476C708.498 64.1984 708.707 64.3707 708.852 64.5646C709 64.7554 709.114 64.9124 709.194 65.0355H709.305V63.9091H710.357V71.2031C710.357 71.8125 710.219 72.308 709.942 72.6896C709.668 73.0743 709.298 73.3559 708.834 73.5344C708.372 73.716 707.858 73.8068 707.292 73.8068ZM707.255 69.9105C707.692 69.9105 708.061 69.8105 708.363 69.6104C708.664 69.4104 708.894 69.1226 709.051 68.7472C709.208 68.3717 709.286 67.9223 709.286 67.3991C709.286 66.8883 709.209 66.4374 709.055 66.0465C708.901 65.6557 708.674 65.3494 708.372 65.1278C708.07 64.9062 707.698 64.7955 707.255 64.7955C706.793 64.7955 706.408 64.9124 706.101 65.1463C705.796 65.3802 705.567 65.6941 705.413 66.0881C705.262 66.482 705.187 66.919 705.187 67.3991C705.187 67.8916 705.264 68.3271 705.417 68.7056C705.574 69.0811 705.805 69.3765 706.11 69.592C706.418 69.8043 706.799 69.9105 707.255 69.9105ZM717.322 65.4972L716.343 65.7741C716.282 65.611 716.191 65.4525 716.071 65.2987C715.954 65.1417 715.794 65.0124 715.591 64.9109C715.388 64.8093 715.128 64.7585 714.811 64.7585C714.377 64.7585 714.015 64.8585 713.726 65.0586C713.44 65.2556 713.297 65.5064 713.297 65.8111C713.297 66.0819 713.395 66.2958 713.592 66.4528C713.789 66.6097 714.097 66.7405 714.515 66.8452L715.568 67.1037C716.202 67.2576 716.674 67.493 716.985 67.81C717.296 68.1239 717.451 68.5286 717.451 69.0241C717.451 69.4304 717.334 69.7936 717.101 70.1136C716.87 70.4337 716.547 70.6861 716.131 70.8707C715.716 71.0554 715.232 71.1477 714.682 71.1477C713.958 71.1477 713.36 70.9908 712.886 70.6768C712.412 70.3629 712.112 69.9044 711.986 69.3011L713.02 69.0426C713.118 69.4242 713.304 69.7105 713.578 69.9013C713.855 70.0921 714.217 70.1875 714.663 70.1875C715.171 70.1875 715.574 70.0798 715.873 69.8643C716.174 69.6458 716.325 69.3842 716.325 69.0795C716.325 68.8333 716.239 68.6271 716.066 68.4609C715.894 68.2917 715.629 68.1655 715.272 68.0824L714.091 67.8054C713.441 67.6515 712.964 67.413 712.66 67.0898C712.358 66.7636 712.207 66.3558 712.207 65.8665C712.207 65.4664 712.319 65.1125 712.544 64.8047C712.772 64.4969 713.081 64.2553 713.472 64.0799C713.866 63.9045 714.312 63.8168 714.811 63.8168C715.513 63.8168 716.063 63.9706 716.463 64.2784C716.867 64.5862 717.153 64.9924 717.322 65.4972ZM721.92 71.1477C721.28 71.1477 720.718 70.9954 720.235 70.6907C719.755 70.386 719.38 69.9598 719.109 69.4119C718.841 68.8641 718.707 68.224 718.707 67.4915C718.707 66.7528 718.841 66.1081 719.109 65.5572C719.38 65.0063 719.755 64.5785 720.235 64.2738C720.718 63.9691 721.28 63.8168 721.92 63.8168C722.56 63.8168 723.12 63.9691 723.601 64.2738C724.084 64.5785 724.459 65.0063 724.727 65.5572C724.998 66.1081 725.133 66.7528 725.133 67.4915C725.133 68.224 724.998 68.8641 724.727 69.4119C724.459 69.9598 724.084 70.386 723.601 70.6907C723.12 70.9954 722.56 71.1477 721.92 71.1477ZM721.92 70.169C722.406 70.169 722.806 70.0444 723.12 69.7951C723.434 69.5458 723.667 69.218 723.817 68.8118C723.968 68.4055 724.044 67.9654 724.044 67.4915C724.044 67.0175 723.968 66.5759 723.817 66.1665C723.667 65.7572 723.434 65.4264 723.12 65.174C722.806 64.9216 722.406 64.7955 721.92 64.7955C721.434 64.7955 721.034 64.9216 720.72 65.174C720.406 65.4264 720.174 65.7572 720.023 66.1665C719.872 66.5759 719.797 67.0175 719.797 67.4915C719.797 67.9654 719.872 68.4055 720.023 68.8118C720.174 69.218 720.406 69.5458 720.72 69.7951C721.034 70.0444 721.434 70.169 721.92 70.169ZM729.625 71.1477C728.985 71.1477 728.423 70.9954 727.94 70.6907C727.46 70.386 727.084 69.9598 726.814 69.4119C726.546 68.8641 726.412 68.224 726.412 67.4915C726.412 66.7528 726.546 66.1081 726.814 65.5572C727.084 65.0063 727.46 64.5785 727.94 64.2738C728.423 63.9691 728.985 63.8168 729.625 63.8168C730.265 63.8168 730.825 63.9691 731.305 64.2738C731.789 64.5785 732.164 65.0063 732.432 65.5572C732.703 66.1081 732.838 66.7528 732.838 67.4915C732.838 68.224 732.703 68.8641 732.432 69.4119C732.164 69.9598 731.789 70.386 731.305 70.6907C730.825 70.9954 730.265 71.1477 729.625 71.1477ZM729.625 70.169C730.111 70.169 730.511 70.0444 730.825 69.7951C731.139 69.5458 731.372 69.218 731.522 68.8118C731.673 68.4055 731.749 67.9654 731.749 67.4915C731.749 67.0175 731.673 66.5759 731.522 66.1665C731.372 65.7572 731.139 65.4264 730.825 65.174C730.511 64.9216 730.111 64.7955 729.625 64.7955C729.139 64.7955 728.739 64.9216 728.425 65.174C728.111 65.4264 727.878 65.7572 727.728 66.1665C727.577 66.5759 727.501 67.0175 727.501 67.4915C727.501 67.9654 727.577 68.4055 727.728 68.8118C727.878 69.218 728.111 69.5458 728.425 69.7951C728.739 70.0444 729.139 70.169 729.625 70.169ZM735.539 66.7344V71H734.449V63.9091H735.502V65.017H735.594C735.76 64.657 736.013 64.3677 736.351 64.1491C736.69 63.9276 737.127 63.8168 737.662 63.8168C738.142 63.8168 738.562 63.9152 738.922 64.1122C739.283 64.3061 739.563 64.6016 739.763 64.9986C739.963 65.3925 740.063 65.8911 740.063 66.4943V71H738.973V66.5682C738.973 66.0111 738.829 65.5772 738.539 65.2663C738.25 64.9524 737.853 64.7955 737.348 64.7955C737 64.7955 736.69 64.8709 736.416 65.0217C736.145 65.1725 735.931 65.3925 735.774 65.6818C735.617 65.9711 735.539 66.322 735.539 66.7344ZM742.796 71.0739C742.568 71.0739 742.372 70.9923 742.209 70.8292C742.046 70.6661 741.965 70.4706 741.965 70.2429C741.965 70.0152 742.046 69.8197 742.209 69.6566C742.372 69.4935 742.568 69.4119 742.796 69.4119C743.023 69.4119 743.219 69.4935 743.382 69.6566C743.545 69.8197 743.627 70.0152 743.627 70.2429C743.627 70.3937 743.588 70.5322 743.511 70.6584C743.437 70.7846 743.337 70.8861 743.211 70.9631C743.088 71.0369 742.95 71.0739 742.796 71.0739ZM748.41 71.1477C747.746 71.1477 747.173 70.9908 746.693 70.6768C746.213 70.3629 745.844 69.9305 745.585 69.3796C745.327 68.8287 745.197 68.1993 745.197 67.4915C745.197 66.7713 745.33 66.1358 745.594 65.5849C745.862 65.0309 746.234 64.5985 746.711 64.2876C747.192 63.9737 747.752 63.8168 748.392 63.8168C748.89 63.8168 749.34 63.9091 749.74 64.0938C750.14 64.2784 750.468 64.5369 750.723 64.8693C750.979 65.2017 751.137 65.5895 751.199 66.0327H750.109C750.026 65.7095 749.841 65.4233 749.555 65.174C749.272 64.9216 748.89 64.7955 748.41 64.7955C747.986 64.7955 747.613 64.9062 747.293 65.1278C746.976 65.3464 746.728 65.6557 746.55 66.0558C746.374 66.4528 746.287 66.919 746.287 67.4545C746.287 68.0024 746.373 68.4794 746.545 68.8857C746.721 69.2919 746.967 69.6074 747.284 69.832C747.604 70.0567 747.979 70.169 748.41 70.169C748.693 70.169 748.95 70.1198 749.181 70.0213C749.412 69.9228 749.608 69.7812 749.768 69.5966C749.928 69.4119 750.042 69.1903 750.109 68.9318H751.199C751.137 69.3504 750.985 69.7274 750.742 70.0629C750.502 70.3952 750.183 70.6599 749.786 70.8569C749.392 71.0508 748.934 71.1477 748.41 71.1477ZM755.62 71.1477C754.98 71.1477 754.418 70.9954 753.935 70.6907C753.455 70.386 753.079 69.9598 752.809 69.4119C752.541 68.8641 752.407 68.224 752.407 67.4915C752.407 66.7528 752.541 66.1081 752.809 65.5572C753.079 65.0063 753.455 64.5785 753.935 64.2738C754.418 63.9691 754.98 63.8168 755.62 63.8168C756.26 63.8168 756.82 63.9691 757.3 64.2738C757.784 64.5785 758.159 65.0063 758.427 65.5572C758.698 66.1081 758.833 66.7528 758.833 67.4915C758.833 68.224 758.698 68.8641 758.427 69.4119C758.159 69.9598 757.784 70.386 757.3 70.6907C756.82 70.9954 756.26 71.1477 755.62 71.1477ZM755.62 70.169C756.106 70.169 756.506 70.0444 756.82 69.7951C757.134 69.5458 757.367 69.218 757.517 68.8118C757.668 68.4055 757.744 67.9654 757.744 67.4915C757.744 67.0175 757.668 66.5759 757.517 66.1665C757.367 65.7572 757.134 65.4264 756.82 65.174C756.506 64.9216 756.106 64.7955 755.62 64.7955C755.134 64.7955 754.734 64.9216 754.42 65.174C754.106 65.4264 753.874 65.7572 753.723 66.1665C753.572 66.5759 753.496 67.0175 753.496 67.4915C753.496 67.9654 753.572 68.4055 753.723 68.8118C753.874 69.218 754.106 69.5458 754.42 69.7951C754.734 70.0444 755.134 70.169 755.62 70.169ZM760.444 71V63.9091H761.497V65.017H761.589C761.737 64.6385 761.975 64.3446 762.305 64.1353C762.634 63.9229 763.029 63.8168 763.491 63.8168C763.959 63.8168 764.348 63.9229 764.659 64.1353C764.973 64.3446 765.218 64.6385 765.393 65.017H765.467C765.649 64.6508 765.921 64.36 766.284 64.1445C766.647 63.926 767.083 63.8168 767.591 63.8168C768.225 63.8168 768.743 64.0153 769.146 64.4123C769.549 64.8062 769.751 65.4202 769.751 66.2543V71H768.662V66.2543C768.662 65.7311 768.518 65.3571 768.232 65.1325C767.946 64.9078 767.609 64.7955 767.221 64.7955C766.723 64.7955 766.336 64.9463 766.062 65.2479C765.789 65.5464 765.652 65.925 765.652 66.3835V71H764.544V66.1435C764.544 65.7403 764.413 65.4156 764.151 65.1694C763.89 64.9201 763.553 64.7955 763.14 64.7955C762.857 64.7955 762.592 64.8709 762.346 65.0217C762.103 65.1725 761.906 65.3817 761.755 65.6495C761.608 65.9142 761.534 66.2204 761.534 66.5682V71H760.444Z" fill="white"/>
</g>
<path d="M936.283 65.6152C936.43 65.6152 936.541 65.5684 936.623 65.4805L939.037 63.0547C939.143 62.9551 939.184 62.8379 939.184 62.7031C939.184 62.5742 939.131 62.4453 939.037 62.3516L936.623 59.9023C936.541 59.8086 936.424 59.7617 936.283 59.7617C936.02 59.7617 935.82 59.9727 935.82 60.2422C935.82 60.3652 935.867 60.4824 935.949 60.5762L937.514 62.1113C937.18 62.0527 936.84 62.0176 936.5 62.0176C933.629 62.0176 931.32 64.3203 931.32 67.1914C931.32 70.0684 933.629 72.377 936.5 72.377C939.371 72.377 941.674 70.0684 941.674 67.1914C941.674 66.9102 941.475 66.7051 941.188 66.7051C940.912 66.7051 940.73 66.9102 940.73 67.1914C940.73 69.5469 938.85 71.4336 936.5 71.4336C934.15 71.4336 932.264 69.5469 932.264 67.1914C932.264 64.8418 934.15 62.9609 936.5 62.9609C936.945 62.9609 937.355 62.9961 937.707 63.0723L935.955 64.8125C935.867 64.9062 935.82 65.0234 935.82 65.1465C935.82 65.416 936.02 65.6152 936.283 65.6152Z" fill="#DBDBDC"/>
</g>
</g>
<path d="M325.754 441.53H314.481C313.814 438.287 312.648 435.439 310.981 432.984C309.345 430.53 307.345 428.469 304.981 426.802C302.648 425.105 300.057 423.833 297.208 422.984C294.36 422.136 291.39 421.712 288.299 421.712C282.663 421.712 277.557 423.136 272.981 425.984C268.436 428.833 264.814 433.03 262.117 438.575C259.451 444.121 258.117 450.924 258.117 458.984C258.117 467.045 259.451 473.848 262.117 479.393C264.814 484.939 268.436 489.136 272.981 491.984C277.557 494.833 282.663 496.257 288.299 496.257C291.39 496.257 294.36 495.833 297.208 494.984C300.057 494.136 302.648 492.878 304.981 491.212C307.345 489.515 309.345 487.439 310.981 484.984C312.648 482.499 313.814 479.651 314.481 476.439H325.754C324.905 481.196 323.36 485.454 321.117 489.212C318.875 492.969 316.087 496.166 312.754 498.802C309.421 501.408 305.678 503.393 301.527 504.757C297.405 506.121 292.996 506.802 288.299 506.802C280.36 506.802 273.299 504.863 267.117 500.984C260.936 497.105 256.072 491.59 252.527 484.439C248.981 477.287 247.208 468.802 247.208 458.984C247.208 449.166 248.981 440.681 252.527 433.53C256.072 426.378 260.936 420.863 267.117 416.984C273.299 413.105 280.36 411.166 288.299 411.166C292.996 411.166 297.405 411.848 301.527 413.212C305.678 414.575 309.421 416.575 312.754 419.212C316.087 421.818 318.875 424.999 321.117 428.757C323.36 432.484 324.905 436.742 325.754 441.53ZM370.367 506.984C364.064 506.984 358.534 505.484 353.776 502.484C349.049 499.484 345.352 495.287 342.685 489.893C340.049 484.499 338.73 478.196 338.73 470.984C338.73 463.712 340.049 457.363 342.685 451.939C345.352 446.515 349.049 442.302 353.776 439.302C358.534 436.302 364.064 434.802 370.367 434.802C376.67 434.802 382.185 436.302 386.912 439.302C391.67 442.302 395.367 446.515 398.003 451.939C400.67 457.363 402.003 463.712 402.003 470.984C402.003 478.196 400.67 484.499 398.003 489.893C395.367 495.287 391.67 499.484 386.912 502.484C382.185 505.484 376.67 506.984 370.367 506.984ZM370.367 497.348C375.155 497.348 379.094 496.121 382.185 493.666C385.276 491.212 387.564 487.984 389.049 483.984C390.534 479.984 391.276 475.651 391.276 470.984C391.276 466.318 390.534 461.969 389.049 457.939C387.564 453.908 385.276 450.651 382.185 448.166C379.094 445.681 375.155 444.439 370.367 444.439C365.579 444.439 361.64 445.681 358.549 448.166C355.458 450.651 353.17 453.908 351.685 457.939C350.2 461.969 349.458 466.318 349.458 470.984C349.458 475.651 350.2 479.984 351.685 483.984C353.17 487.984 355.458 491.212 358.549 493.666C361.64 496.121 365.579 497.348 370.367 497.348ZM417.866 505.53V435.712H428.23V446.621H429.139C430.593 442.893 432.942 439.999 436.184 437.939C439.427 435.848 443.321 434.802 447.866 434.802C452.472 434.802 456.306 435.848 459.366 437.939C462.457 439.999 464.866 442.893 466.593 446.621H467.321C469.109 443.015 471.79 440.151 475.366 438.03C478.942 435.878 483.23 434.802 488.23 434.802C494.472 434.802 499.578 436.757 503.548 440.666C507.518 444.545 509.503 450.59 509.503 458.802V505.53H498.775V458.802C498.775 453.651 497.366 449.969 494.548 447.757C491.73 445.545 488.412 444.439 484.593 444.439C479.684 444.439 475.881 445.924 473.184 448.893C470.487 451.833 469.139 455.56 469.139 460.075V505.53H458.23V457.712C458.23 453.742 456.942 450.545 454.366 448.121C451.79 445.666 448.472 444.439 444.412 444.439C441.624 444.439 439.018 445.181 436.593 446.666C434.2 448.151 432.26 450.212 430.775 452.848C429.321 455.454 428.593 458.469 428.593 461.893V505.53H417.866ZM528.604 505.53V435.712H539.331V505.53H528.604ZM534.059 424.075C531.968 424.075 530.165 423.363 528.65 421.939C527.165 420.515 526.422 418.802 526.422 416.802C526.422 414.802 527.165 413.09 528.65 411.666C530.165 410.242 531.968 409.53 534.059 409.53C536.15 409.53 537.938 410.242 539.422 411.666C540.938 413.09 541.695 414.802 541.695 416.802C541.695 418.802 540.938 420.515 539.422 421.939C537.938 423.363 536.15 424.075 534.059 424.075ZM569.194 463.53V505.53H558.467V435.712H568.831V446.621H569.74C571.376 443.075 573.861 440.227 577.194 438.075C580.528 435.893 584.831 434.802 590.104 434.802C594.831 434.802 598.967 435.772 602.513 437.712C606.058 439.621 608.816 442.53 610.785 446.439C612.755 450.318 613.74 455.227 613.74 461.166V505.53H603.013V461.893C603.013 456.408 601.588 452.136 598.74 449.075C595.891 445.984 591.982 444.439 587.013 444.439C583.588 444.439 580.528 445.181 577.831 446.666C575.164 448.151 573.058 450.318 571.513 453.166C569.967 456.015 569.194 459.469 569.194 463.53ZM661.012 533.166C655.83 533.166 651.376 532.499 647.648 531.166C643.921 529.863 640.815 528.136 638.33 525.984C635.876 523.863 633.921 521.59 632.467 519.166L641.012 513.166C641.982 514.439 643.209 515.893 644.694 517.53C646.179 519.196 648.209 520.636 650.785 521.848C653.391 523.09 656.8 523.712 661.012 523.712C666.648 523.712 671.3 522.348 674.967 519.621C678.633 516.893 680.467 512.621 680.467 506.802V492.621H679.557C678.77 493.893 677.648 495.469 676.194 497.348C674.77 499.196 672.709 500.848 670.012 502.302C667.345 503.727 663.739 504.439 659.194 504.439C653.557 504.439 648.497 503.105 644.012 500.439C639.557 497.772 636.027 493.893 633.421 488.802C630.845 483.712 629.557 477.53 629.557 470.257C629.557 463.105 630.815 456.878 633.33 451.575C635.845 446.242 639.345 442.121 643.83 439.212C648.315 436.272 653.497 434.802 659.376 434.802C663.921 434.802 667.527 435.56 670.194 437.075C672.891 438.56 674.951 440.257 676.376 442.166C677.83 444.045 678.951 445.59 679.739 446.802H680.83V435.712H691.194V507.53C691.194 513.53 689.83 518.408 687.103 522.166C684.406 525.954 680.77 528.727 676.194 530.484C671.648 532.272 666.588 533.166 661.012 533.166ZM660.648 494.802C664.951 494.802 668.588 493.818 671.557 491.848C674.527 489.878 676.785 487.045 678.33 483.348C679.876 479.651 680.648 475.227 680.648 470.075C680.648 465.045 679.891 460.605 678.376 456.757C676.861 452.908 674.618 449.893 671.648 447.712C668.679 445.53 665.012 444.439 660.648 444.439C656.103 444.439 652.315 445.59 649.285 447.893C646.285 450.196 644.027 453.287 642.512 457.166C641.027 461.045 640.285 465.348 640.285 470.075C640.285 474.924 641.042 479.212 642.557 482.939C644.103 486.636 646.376 489.545 649.376 491.666C652.406 493.757 656.164 494.802 660.648 494.802ZM798.17 435.712C797.624 431.105 795.412 427.53 791.533 424.984C787.655 422.439 782.897 421.166 777.261 421.166C773.14 421.166 769.533 421.833 766.443 423.166C763.382 424.499 760.988 426.333 759.261 428.666C757.564 430.999 756.715 433.651 756.715 436.621C756.715 439.105 757.306 441.242 758.488 443.03C759.7 444.787 761.246 446.257 763.124 447.439C765.003 448.59 766.973 449.545 769.033 450.302C771.094 451.03 772.988 451.621 774.715 452.075L784.17 454.621C786.594 455.257 789.291 456.136 792.261 457.257C795.261 458.378 798.124 459.908 800.852 461.848C803.609 463.757 805.882 466.212 807.67 469.212C809.458 472.212 810.352 475.893 810.352 480.257C810.352 485.287 809.033 489.833 806.397 493.893C803.791 497.954 799.973 501.181 794.943 503.575C789.943 505.969 783.867 507.166 776.715 507.166C770.049 507.166 764.276 506.09 759.397 503.939C754.549 501.787 750.73 498.787 747.943 494.939C745.185 491.09 743.624 486.621 743.261 481.53H754.897C755.2 485.045 756.382 487.954 758.443 490.257C760.533 492.53 763.17 494.227 766.352 495.348C769.564 496.439 773.018 496.984 776.715 496.984C781.018 496.984 784.882 496.287 788.306 494.893C791.73 493.469 794.443 491.499 796.443 488.984C798.443 486.439 799.443 483.469 799.443 480.075C799.443 476.984 798.579 474.469 796.852 472.53C795.124 470.59 792.852 469.015 790.033 467.802C787.215 466.59 784.17 465.53 780.897 464.621L769.443 461.348C762.17 459.257 756.412 456.272 752.17 452.393C747.927 448.515 745.806 443.439 745.806 437.166C745.806 431.954 747.215 427.408 750.033 423.53C752.882 419.621 756.7 416.59 761.488 414.439C766.306 412.257 771.685 411.166 777.624 411.166C783.624 411.166 788.958 412.242 793.624 414.393C798.291 416.515 801.988 419.424 804.715 423.121C807.473 426.818 808.927 431.015 809.079 435.712H798.17ZM855.283 506.984C848.98 506.984 843.449 505.484 838.692 502.484C833.965 499.484 830.268 495.287 827.601 489.893C824.965 484.499 823.646 478.196 823.646 470.984C823.646 463.712 824.965 457.363 827.601 451.939C830.268 446.515 833.965 442.302 838.692 439.302C843.449 436.302 848.98 434.802 855.283 434.802C861.586 434.802 867.101 436.302 871.828 439.302C876.586 442.302 880.283 446.515 882.919 451.939C885.586 457.363 886.919 463.712 886.919 470.984C886.919 478.196 885.586 484.499 882.919 489.893C880.283 495.287 876.586 499.484 871.828 502.484C867.101 505.484 861.586 506.984 855.283 506.984ZM855.283 497.348C860.071 497.348 864.01 496.121 867.101 493.666C870.192 491.212 872.48 487.984 873.965 483.984C875.45 479.984 876.192 475.651 876.192 470.984C876.192 466.318 875.45 461.969 873.965 457.939C872.48 453.908 870.192 450.651 867.101 448.166C864.01 445.681 860.071 444.439 855.283 444.439C850.495 444.439 846.556 445.681 843.465 448.166C840.374 450.651 838.086 453.908 836.601 457.939C835.116 461.969 834.374 466.318 834.374 470.984C834.374 475.651 835.116 479.984 836.601 483.984C838.086 487.984 840.374 491.212 843.465 493.666C846.556 496.121 850.495 497.348 855.283 497.348ZM931.146 506.984C924.843 506.984 919.313 505.484 914.555 502.484C909.828 499.484 906.131 495.287 903.464 489.893C900.828 484.499 899.51 478.196 899.51 470.984C899.51 463.712 900.828 457.363 903.464 451.939C906.131 446.515 909.828 442.302 914.555 439.302C919.313 436.302 924.843 434.802 931.146 434.802C937.449 434.802 942.964 436.302 947.691 439.302C952.449 442.302 956.146 446.515 958.782 451.939C961.449 457.363 962.782 463.712 962.782 470.984C962.782 478.196 961.449 484.499 958.782 489.893C956.146 495.287 952.449 499.484 947.691 502.484C942.964 505.484 937.449 506.984 931.146 506.984ZM931.146 497.348C935.934 497.348 939.873 496.121 942.964 493.666C946.055 491.212 948.343 487.984 949.828 483.984C951.313 479.984 952.055 475.651 952.055 470.984C952.055 466.318 951.313 461.969 949.828 457.939C948.343 453.908 946.055 450.651 942.964 448.166C939.873 445.681 935.934 444.439 931.146 444.439C926.358 444.439 922.419 445.681 919.328 448.166C916.237 450.651 913.949 453.908 912.464 457.939C910.979 461.969 910.237 466.318 910.237 470.984C910.237 475.651 910.979 479.984 912.464 483.984C913.949 487.984 916.237 491.212 919.328 493.666C922.419 496.121 926.358 497.348 931.146 497.348ZM989.372 463.53V505.53H978.645V435.712H989.009V446.621H989.918C991.554 443.075 994.039 440.227 997.372 438.075C1000.71 435.893 1005.01 434.802 1010.28 434.802C1015.01 434.802 1019.15 435.772 1022.69 437.712C1026.24 439.621 1028.99 442.53 1030.96 446.439C1032.93 450.318 1033.92 455.227 1033.92 461.166V505.53H1023.19V461.893C1023.19 456.408 1021.77 452.136 1018.92 449.075C1016.07 445.984 1012.16 444.439 1007.19 444.439C1003.77 444.439 1000.71 445.181 998.009 446.666C995.342 448.151 993.236 450.318 991.691 453.166C990.145 456.015 989.372 459.469 989.372 463.53ZM1053.74 506.075C1052.83 506.075 1052.08 505.757 1051.51 505.121C1050.96 504.484 1050.74 503.712 1050.83 502.802C1050.92 501.893 1051.31 501.121 1052.01 500.484C1052.74 499.848 1053.55 499.53 1054.46 499.53C1055.37 499.53 1056.1 499.848 1056.64 500.484C1057.22 501.121 1057.46 501.893 1057.37 502.802C1057.31 503.408 1057.1 503.969 1056.74 504.484C1056.4 504.969 1055.96 505.348 1055.42 505.621C1054.9 505.924 1054.34 506.075 1053.74 506.075ZM1085.6 506.075C1084.69 506.075 1083.95 505.757 1083.37 505.121C1082.83 504.484 1082.6 503.712 1082.69 502.802C1082.78 501.893 1083.17 501.121 1083.87 500.484C1084.6 499.848 1085.42 499.53 1086.33 499.53C1087.23 499.53 1087.96 499.848 1088.51 500.484C1089.08 501.121 1089.33 501.893 1089.23 502.802C1089.17 503.408 1088.96 503.969 1088.6 504.484C1088.27 504.969 1087.83 505.348 1087.28 505.621C1086.77 505.924 1086.2 506.075 1085.6 506.075ZM1117.46 506.075C1116.55 506.075 1115.81 505.757 1115.23 505.121C1114.69 504.484 1114.46 503.712 1114.55 502.802C1114.64 501.893 1115.04 501.121 1115.73 500.484C1116.46 499.848 1117.28 499.53 1118.19 499.53C1119.1 499.53 1119.83 499.848 1120.37 500.484C1120.95 501.121 1121.19 501.893 1121.1 502.802C1121.04 503.408 1120.83 503.969 1120.46 504.484C1120.13 504.969 1119.69 505.348 1119.14 505.621C1118.63 505.924 1118.07 506.075 1117.46 506.075Z" fill="black"/>
</g>
<rect x="50.25" y="40.25" width="1279.5" height="783.5" rx="9.75" stroke="#070707" stroke-width="0.5"/>
</g>
<defs>
<filter id="filter0_ddd_0_39" x="0" y="0" width="1380" height="884" filterUnits="userSpaceOnUse" color-interpolation-filters="sRGB">
<feFlood flood-opacity="0" result="BackgroundImageFix"/>
<feColorMatrix in="SourceAlpha" type="matrix" values="0 0 0 0 0 0 0 0 0 0 0 0 0 0 0 0 0 0 127 0" result="hardAlpha"/>
<feOffset dy="10"/>
<feGaussianBlur stdDeviation="25"/>
<feColorMatrix type="matrix" values="0 0 0 0 0 0 0 0 0 0 0 0 0 0 0 0 0 0 0.2 0"/>
<feBlend mode="normal" in2="BackgroundImageFix" result="effect1_dropShadow_0_39"/>
<feColorMatrix in="SourceAlpha" type="matrix" values="0 0 0 0 0 0 0 0 0 0 0 0 0 0 0 0 0 0 127 0" result="hardAlpha"/>
<feOffset dy="20"/>
<feGaussianBlur stdDeviation="15"/>
<feColorMatrix type="matrix" values="0 0 0 0 0 0 0 0 0 0 0 0 0 0 0 0 0 0 0.3 0"/>
<feBlend mode="normal" in2="effect1_dropShadow_0_39" result="effect2_dropShadow_0_39"/>
<feColorMatrix in="SourceAlpha" type="matrix" values="0 0 0 0 0 0 0 0 0 0 0 0 0 0 0 0 0 0 127 0" result="hardAlpha"/>
<feOffset/>
<feGaussianBlur stdDeviation="0.5"/>
<feColorMatrix type="matrix" values="0 0 0 0 0 0 0 0 0 0 0 0 0 0 0 0 0 0 0.7 0"/>
<feBlend mode="normal" in2="effect2_dropShadow_0_39" result="effect3_dropShadow_0_39"/>
<feBlend mode="normal" in="SourceGraphic" in2="effect3_dropShadow_0_39" result="shape"/>
</filter>
<filter id="filter1_iiii_0_39" x="50" y="40" width="1280" height="53" filterUnits="userSpaceOnUse" color-interpolation-filters="sRGB">
<feFlood flood-opacity="0" result="BackgroundImageFix"/>
<feBlend mode="normal" in="SourceGraphic" in2="BackgroundImageFix" result="shape"/>
<feColorMatrix in="SourceAlpha" type="matrix" values="0 0 0 0 0 0 0 0 0 0 0 0 0 0 0 0 0 0 127 0" result="hardAlpha"/>
<feOffset dx="1"/>
<feComposite in2="hardAlpha" operator="arithmetic" k2="-1" k3="1"/>
<feColorMatrix type="matrix" values="0 0 0 0 0.278431 0 0 0 0 0.286275 0 0 0 0 0.298039 0 0 0 1 0"/>
<feBlend mode="normal" in2="shape" result="effect1_innerShadow_0_39"/>
<feColorMatrix in="SourceAlpha" type="matrix" values="0 0 0 0 0 0 0 0 0 0 0 0 0 0 0 0 0 0 127 0" result="hardAlpha"/>
<feOffset dx="-1"/>
<feComposite in2="hardAlpha" operator="arithmetic" k2="-1" k3="1"/>
<feColorMatrix type="matrix" values="0 0 0 0 0.278431 0 0 0 0 0.286275 0 0 0 0 0.294118 0 0 0 1 0"/>
<feBlend mode="normal" in2="effect1_innerShadow_0_39" result="effect2_innerShadow_0_39"/>
<feColorMatrix in="SourceAlpha" type="matrix" values="0 0 0 0 0 0 0 0 0 0 0 0 0 0 0 0 0 0 127 0" result="hardAlpha"/>
<feOffset dy="1"/>
<feComposite in2="hardAlpha" operator="arithmetic" k2="-1" k3="1"/>
<feColorMatrix type="matrix" values="0 0 0 0 1 0 0 0 0 1 0 0 0 0 1 0 0 0 0.4 0"/>
<feBlend mode="normal" in2="effect2_innerShadow_0_39" result="effect3_innerShadow_0_39"/>
<feColorMatrix in="SourceAlpha" type="matrix" values="0 0 0 0 0 0 0 0 0 0 0 0 0 0 0 0 0 0 127 0" result="hardAlpha"/>
<feOffset dy="0.5"/>
<feComposite in2="hardAlpha" operator="arithmetic" k2="-1" k3="1"/>
<feColorMatrix type="matrix" values="0 0 0 0 1 0 0 0 0 1 0 0 0 0 1 0 0 0 0.4 0"/>
<feBlend mode="normal" in2="effect3_innerShadow_0_39" result="effect4_innerShadow_0_39"/>
</filter>
<filter id="filter2_i_0_39" x="71" y="60" width="12" height="12" filterUnits="userSpaceOnUse" color-interpolation-filters="sRGB">
<feFlood flood-opacity="0" result="BackgroundImageFix"/>
<feBlend mode="normal" in="SourceGraphic" in2="BackgroundImageFix" result="shape"/>
<feColorMatrix in="SourceAlpha" type="matrix" values="0 0 0 0 0 0 0 0 0 0 0 0 0 0 0 0 0 0 127 0" result="hardAlpha"/>
<feOffset/>
<feGaussianBlur stdDeviation="3"/>
<feComposite in2="hardAlpha" operator="arithmetic" k2="-1" k3="1"/>
<feColorMatrix type="matrix" values="0 0 0 0 0.92549 0 0 0 0 0.427451 0 0 0 0 0.384314 0 0 0 1 0"/>
<feBlend mode="normal" in2="shape" result="effect1_innerShadow_0_39"/>
</filter>
<filter id="filter3_i_0_39" x="91" y="60" width="12" height="12" filterUnits="userSpaceOnUse" color-interpolation-filters="sRGB">
<feFlood flood-opacity="0" result="BackgroundImageFix"/>
<feBlend mode="normal" in="SourceGraphic" in2="BackgroundImageFix" result="shape"/>
<feColorMatrix in="SourceAlpha" type="matrix" values="0 0 0 0 0 0 0 0 0 0 0 0 0 0 0 0 0 0 127 0" result="hardAlpha"/>
<feOffset/>
<feGaussianBlur stdDeviation="3"/>
<feComposite in2="hardAlpha" operator="arithmetic" k2="-1" k3="1"/>
<feColorMatrix type="matrix" values="0 0 0 0 0.960784 0 0 0 0 0.768627 0 0 0 0 0.317647 0 0 0 1 0"/>
<feBlend mode="normal" in2="shape" result="effect1_innerShadow_0_39"/>
</filter>
<filter id="filter4_i_0_39" x="111" y="60" width="12" height="12" filterUnits="userSpaceOnUse" color-interpolation-filters="sRGB">
<feFlood flood-opacity="0" result="BackgroundImageFix"/>
<feBlend mode="normal" in="SourceGraphic" in2="BackgroundImageFix" result="shape"/>
<feColorMatrix in="SourceAlpha" type="matrix" values="0 0 0 0 0 0 0 0 0 0 0 0 0 0 0 0 0 0 127 0" result="hardAlpha"/>
<feOffset/>
<feGaussianBlur stdDeviation="3"/>
<feComposite in2="hardAlpha" operator="arithmetic" k2="-1" k3="1"/>
<feColorMatrix type="matrix" values="0 0 0 0 0.407843 0 0 0 0 0.8 0 0 0 0 0.345098 0 0 0 1 0"/>
<feBlend mode="normal" in2="shape" result="effect1_innerShadow_0_39"/>
</filter>
<clipPath id="clip0_0_39">
<rect x="50" y="40" width="1280" height="784" rx="10" fill="white"/>
</clipPath>
<clipPath id="clip1_0_39">
<rect width="156" height="28" fill="white" transform="translate(1162 52)"/>
</clipPath>
<clipPath id="clip2_0_39">
<rect width="66" height="28" fill="white" transform="translate(184 52)"/>
</clipPath>
<clipPath id="clip3_0_39">
<rect width="600" height="28" fill="white" transform="translate(390 52)"/>
</clipPath>
<clipPath id="clip4_0_39">
<rect x="608.586" y="58" width="162.828" height="16" fill="white"/>
</clipPath>
</defs>
</svg>
